#N canvas 465 87 766 693 10;
#X text 22 5 block_fade \$0 Lum;
#X obj 202 69 namecanvas \$0-can;
#X obj 202 48 s \$0-can;
#X msg 202 27 donecanvasdialog 1 -1 0;
#X msg 202 5 reduire;
#X obj 101 101 cnv 15 118 58 empty empty empty 20 12 0 14 -245500 -66577
0;
#X obj 107 113 hsl 100 10 0 1 0 0 \$0-L-snd \$0-L-rcv \$2 -2 -6 0 10
-257985 -1 -1 0 1;
#X obj 107 123 hsl 100 10 0 1 0 0 \$0-rien-snd \$0-rien-rcv empty 105
5 0 10 -262144 -1 -1 0 1;
#X obj 107 123 hsl 100 10 0 1 0 0 \$0-Lvu-snd \$0-Lvu-rcv empty -2
-6 0 10 -262144 -1 -1 0 1;
#X obj 107 133 hsl 60 10 0 1 0 0 \$0-up-snd \$0-up-rcv up:0s 65 6 0
10 -204786 -1 -1 0 1;
#X obj 107 143 hsl 60 10 0 1 0 0 \$0-dn-snd \$0-dn-rcv dn:6s 65 6 0
10 -261234 -1 -1 0 1;
#X obj 367 126 i;
#X obj 367 15 r \$0-up-snd;
#X obj 22 42 apf \$1 \$2-up \$0-up;
#X obj 22 59 apf \$1 \$2-dn \$0-dn;
#X msg 386 171 label up:\$1s;
#X obj 386 195 s \$0-up-rcv;
#X obj 367 104 / 10;
#X obj 367 147 / 100;
#X obj 436 124 i;
#X obj 436 102 / 100;
#X obj 436 145 / 10;
#X obj 478 125 i;
#X obj 478 103 / 1000;
#X obj 367 80 moses 1000;
#X obj 436 81 moses 10000;
#X obj 420 55 s \$0-up;
#X obj 523 126 i;
#X obj 523 104 / 10;
#X obj 523 147 / 100;
#X obj 592 124 i;
#X obj 592 102 / 100;
#X obj 592 145 / 10;
#X obj 634 125 i;
#X obj 634 103 / 1000;
#X obj 523 80 moses 1000;
#X obj 592 81 moses 10000;
#X obj 523 15 r \$0-dn-snd;
#X obj 576 55 s \$0-dn;
#X obj 542 195 s \$0-dn-rcv;
#X msg 542 171 label dn:\$1s;
#X obj 34 172 r \$1-tlev;
#X obj 34 195 unpack f f f f;
#X obj 100 218 -;
#X obj 100 239 * -1;
#X obj 160 196 change;
#X obj 137 231 s \$0-len;
#X obj 297 410 r \$0-L-snd;
#X obj 61 284 s \$0-time;
#X obj 100 260 s \$0-invtime;
#X obj 148 313 r \$0-time;
#X obj 148 352 moses;
#X obj 273 176 r \$0-len;
#X obj 273 236 / 2;
#X obj 223 214 r \$0-up;
#X obj 239 291 min;
#X obj 223 237 / 1000;
#X obj 253 351 moses;
#X obj 335 236 / 1000;
#X obj 335 213 r \$0-dn;
#X obj 335 259 * -1;
#X obj 340 287 +;
#X obj 385 248 t b f;
#X obj 273 256 t b f;
#X obj 273 197 t f f;
#X obj 280 323 max;
#X msg 253 403 1;
#X obj 253 431 change;
#X obj 253 457 *;
#X obj 297 431 t b f;
#X obj 253 533 s \$0-Lvu-rcv;
#X obj 424 276 r \$1-mode-snd;
#X obj 424 351 t b b;
#X obj 451 399 s \$0-L-rcv;
#X msg 451 374 0;
#X obj 367 56 * 60000;
#X obj 523 56 * 60000;
#X obj 367 35 pow 3;
#X obj 523 35 pow 3;
#X obj 352 454 t b f;
#X obj 352 433 r \$1-LumMul;
#X obj 253 480 * 1;
#X obj 335 506 s \$1-\$2-snd;
#X obj 520 399 s \$1-LumMul;
#X msg 520 377 1;
#X obj 424 328 del 1;
#X msg 463 329 stop;
#X obj 253 508 speedlim 50;
#X obj 43 362 route _all_;
#X obj 43 382 route store;
#X obj 43 327 r \$1-pattern-snd;
#X msg 43 427 \$2 store \$1;
#X obj 43 452 s \$1-pattern-snd;
#X obj 44 507 route _all_;
#X obj 44 527 route _nbpattern_;
#X obj 44 477 r \$1-setap-snd;
#X obj 44 595 s \$1-setap-snd;
#X msg 44 570 \$2 _nbpattern_ \$1;
#X obj 43 404 pack f s;
#X obj 44 548 pack f s;
#X obj 131 425 symbol \$2;
#X obj 131 403 loadbang;
#X obj 22 24 apf \$1 \$2 \$0-L 0 1;
#X obj 535 250 bng 15 250 50 0 empty empty empty 17 7 0 10 -262144
-1 -1;
#X obj 535 226 r \$1-pat-preload;
#X obj 424 298 sel 0;
#X msg 535 272 0;
#X obj 502 443 r \$1-LumMul;
#X obj 494 469 print;
#X obj 535 292 t f f;
#X obj 195 530 print t;
#X obj 209 562 print L;
#X msg 535 314 set -1 \, 0;
#X floatatom 301 589 5 0 0 0 - - -;
#X obj 280 376 maxlib/scale 0 1 0 1;
#X obj 148 377 maxlib/scale 0 1 0 1;
#X connect 3 0 2 0;
#X connect 4 0 3 0;
#X connect 11 0 18 0;
#X connect 12 0 77 0;
#X connect 15 0 16 0;
#X connect 17 0 11 0;
#X connect 18 0 15 0;
#X connect 19 0 21 0;
#X connect 20 0 19 0;
#X connect 21 0 15 0;
#X connect 22 0 15 0;
#X connect 23 0 22 0;
#X connect 24 0 17 0;
#X connect 24 1 25 0;
#X connect 25 0 20 0;
#X connect 25 1 23 0;
#X connect 27 0 29 0;
#X connect 28 0 27 0;
#X connect 29 0 40 0;
#X connect 30 0 32 0;
#X connect 31 0 30 0;
#X connect 32 0 40 0;
#X connect 33 0 40 0;
#X connect 34 0 33 0;
#X connect 35 0 28 0;
#X connect 35 1 36 0;
#X connect 36 0 31 0;
#X connect 36 1 34 0;
#X connect 37 0 78 0;
#X connect 40 0 39 0;
#X connect 41 0 42 0;
#X connect 42 1 43 0;
#X connect 42 1 48 0;
#X connect 42 3 43 1;
#X connect 42 3 46 0;
#X connect 43 0 44 0;
#X connect 44 0 49 0;
#X connect 45 0 46 0;
#X connect 47 0 69 0;
#X connect 50 0 51 0;
#X connect 51 0 115 0;
#X connect 51 1 57 0;
#X connect 52 0 64 0;
#X connect 53 0 63 0;
#X connect 54 0 56 0;
#X connect 55 0 51 1;
#X connect 55 0 115 2;
#X connect 56 0 55 0;
#X connect 57 0 66 0;
#X connect 57 1 114 0;
#X connect 58 0 60 0;
#X connect 59 0 58 0;
#X connect 60 0 61 0;
#X connect 61 0 65 0;
#X connect 62 0 61 0;
#X connect 62 1 61 1;
#X connect 62 1 114 1;
#X connect 63 0 55 0;
#X connect 63 0 65 0;
#X connect 63 1 55 1;
#X connect 63 1 65 1;
#X connect 64 0 53 0;
#X connect 64 1 62 0;
#X connect 65 0 57 1;
#X connect 65 0 114 2;
#X connect 66 0 67 0;
#X connect 67 0 68 0;
#X connect 68 0 81 0;
#X connect 69 0 68 0;
#X connect 69 1 68 1;
#X connect 71 0 105 0;
#X connect 72 0 66 0;
#X connect 72 1 74 0;
#X connect 72 1 84 0;
#X connect 74 0 73 0;
#X connect 75 0 24 0;
#X connect 75 0 26 0;
#X connect 76 0 35 0;
#X connect 76 0 38 0;
#X connect 77 0 75 0;
#X connect 78 0 76 0;
#X connect 79 0 81 0;
#X connect 79 1 81 1;
#X connect 80 0 79 0;
#X connect 81 0 82 0;
#X connect 81 0 87 0;
#X connect 84 0 83 0;
#X connect 85 0 72 0;
#X connect 86 0 85 0;
#X connect 87 0 70 0;
#X connect 88 0 89 0;
#X connect 89 0 98 0;
#X connect 91 0 92 0;
#X connect 93 0 94 0;
#X connect 94 0 99 0;
#X connect 97 0 96 0;
#X connect 98 0 91 0;
#X connect 99 0 97 0;
#X connect 100 0 98 1;
#X connect 100 0 99 1;
#X connect 101 0 100 0;
#X connect 103 0 106 0;
#X connect 104 0 103 0;
#X connect 105 0 85 0;
#X connect 105 1 86 0;
#X connect 106 0 109 0;
#X connect 109 0 112 0;
#X connect 112 0 67 0;
#X connect 114 0 67 0;
#X connect 115 0 67 0;
#X coords 0 -1 1 1 120 60 1 100 100;
