#N canvas 243 410 335 263 10;
#X obj 37 33 inlet;
#X obj 41 142 f 0;
#X obj 101 144 + 1;
#X obj 101 167 mod \$1;
#X msg 56 122 0;
#X obj 41 201 outlet;
#X obj 37 61 route reset;
#X msg 41 102 bang;
#X obj 134 28 inlet;
#X text 188 76 from creb abs;
#X connect 0 0 6 0;
#X connect 1 0 2 0;
#X connect 1 0 5 0;
#X connect 2 0 3 0;
#X connect 3 0 1 1;
#X connect 4 0 1 1;
#X connect 6 0 4 0;
#X connect 6 1 7 0;
#X connect 7 0 1 0;
#X connect 8 0 3 1;
