#N canvas 1 68 450 300 10;
#X obj 89 40 inlet;
#X obj 89 64 t a a;
#X obj 89 181 list;
#X obj 89 88 list split \$2;
#X obj 89 112 list split 1;
#X obj 89 134 route \$1;
#X obj 89 155 b;
#X obj 89 240 outlet;
#X obj 89 208 list trim;
#X obj 155 182 list;
#X obj 155 156 b;
#X obj 155 241 outlet;
#X obj 155 209 list trim;
#X obj 203 39 inlet;
#X obj 261 39 inlet;
#X connect 0 0 1 0;
#X connect 1 0 3 0;
#X connect 1 1 2 1;
#X connect 1 1 9 1;
#X connect 2 0 8 0;
#X connect 3 0 4 0;
#X connect 4 0 5 0;
#X connect 5 0 6 0;
#X connect 5 1 10 0;
#X connect 6 0 2 0;
#X connect 8 0 7 0;
#X connect 9 0 12 0;
#X connect 10 0 9 0;
#X connect 12 0 11 0;
#X connect 13 0 5 1;
#X connect 14 0 3 1;
