#N canvas 7 75 450 300 10;
#X obj 89 40 inlet;
#X obj 89 64 t a a;
#X obj 117 183 list;
#X obj 117 114 list split 1;
#X obj 117 157 b;
#X obj 117 242 outlet;
#X obj 117 210 list trim;
#X obj 183 184 list;
#X obj 183 158 b;
#X obj 183 243 outlet;
#X obj 183 211 list trim;
#X obj 203 39 inlet;
#X obj 261 39 inlet;
#X obj 301 40 loadbang;
#X obj 301 62 f \$2;
#X obj 301 84 - 1;
#X obj 89 88 list split;
#X obj 368 62 bng 15 250 50 0 empty empty empty 17 7 0 10 -262144 -1
-1;
#X obj 117 136 sel \$1;
#X connect 0 0 1 0;
#X connect 1 0 16 0;
#X connect 1 1 2 1;
#X connect 1 1 7 1;
#X connect 2 0 6 0;
#X connect 3 0 18 0;
#X connect 4 0 2 0;
#X connect 6 0 5 0;
#X connect 7 0 10 0;
#X connect 8 0 7 0;
#X connect 10 0 9 0;
#X connect 11 0 18 1;
#X connect 12 0 14 0;
#X connect 13 0 14 0;
#X connect 14 0 15 0;
#X connect 15 0 16 1;
#X connect 16 1 3 0;
#X connect 17 0 14 0;
#X connect 18 0 4 0;
#X connect 18 1 8 0;
