#N canvas 222 79 504 689 10;
#X obj 60 81 r \$1-song-\$2-snd;
#X floatatom 119 192 5 0 0 0 - - -;
#X obj 60 104 route \$3;
#X obj 74 187 sel -1;
#X obj 93 250 change;
#X obj 93 326 s \$4-pattern-snd;
#X msg 93 302 _all_ load \$1;
#X obj 204 293 s \$4-pattern-snd;
#X msg 204 269 _all_ store \$1;
#X obj 208 81 inlet;
#X obj 204 242 f;
#X obj 232 143 spigot;
#X msg 322 119 0;
#X msg 283 120 1;
#X obj 141 154 t b f;
#X obj 17 360 outlet event;
#X obj 255 359 outlet rec_enabled;
#X obj 283 173 tgl 15 0 empty empty empty 17 7 0 10 -262144 -1 -1 0
1;
#X obj 283 146 change;
#X msg 74 214 set -1;
#X obj 223 330 s \$4-memorynum;
#X obj 249 78 r \$4-rec-snd;
#X obj 379 274 s \$4-rec-rcv;
#X obj 344 180 sel 0 1;
#X obj 342 276 bng 15 250 50 0 empty empty empty 17 7 0 10 -195568
-195568 -195568;
#X msg 334 229 color 20 20 20;
#X msg 364 207 color 13 22 22;
#X obj 93 279 t f b f;
#X obj 135 375 s \$4-pat-preload;
#X obj 60 128 route get added select prev;
#X floatatom 179 437 5 0 0 0 - - -;
#X obj 79 479 pack f f f;
#X obj 46 456 sel -1;
#X obj 79 527 list prepend _all_;
#X obj 79 549 list trim;
#X msg 79 503 A \$2 \, B \$1 \, pos \$3;
#X obj 79 575 s \$4var-pattern-snd;
#X obj 243 389 change;
#X msg 243 415 _all_ load \$1;
#X obj 243 439 s \$4var-pattern-snd;
#X obj 306 300 s \$4var-pattern-snd;
#X obj 246 465 r \$4-setap-snd;
#X obj 246 488 route _all_;
#X obj 246 511 route _loaded_;
#X obj 259 559 s \$4-setap-snd;
#X obj 246 589 s \$4var-setap-snd;
#X msg 246 533 _all_ _nbpattern_ 128;
#X obj 343 510 loadbang;
#X text 20 4 tlLinkAp SongRef SongName TrackNum destSubRef;
#X text 41 19 \$1:SongRef;
#X text 110 18 \$2:SongName;
#X text 188 18 \$3:TrackNum;
#X text 266 18 \$4:subRef;
#X text 112 43 Link the track of a song to an AutoPreset subreference.
;
#X text 23 635 get : eventNum relativeTime normalizedTime eventLength
;
#X floatatom 77 690 5 0 0 0 - - -;
#X floatatom 112 691 5 0 0 0 - - -;
#X floatatom 147 690 8 0 0 0 - - -;
#X floatatom 200 689 5 0 0 0 - - -;
#X floatatom 238 689 5 0 0 0 - - -;
#X obj 83 664 unpack f f f f f;
#X obj 60 406 unpack f f f f;
#X obj 74 162 list split 1;
#X obj 382 99 loadbang;
#X msg 382 120 0;
#X connect 0 0 2 0;
#X connect 2 0 29 0;
#X connect 3 0 19 0;
#X connect 3 1 4 0;
#X connect 4 0 10 1;
#X connect 4 0 27 0;
#X connect 6 0 5 0;
#X connect 8 0 7 0;
#X connect 8 0 40 0;
#X connect 9 0 11 0;
#X connect 10 0 8 0;
#X connect 10 0 20 0;
#X connect 11 0 10 0;
#X connect 12 0 18 0;
#X connect 13 0 18 0;
#X connect 14 0 13 0;
#X connect 14 1 4 0;
#X connect 14 1 37 0;
#X connect 17 0 16 0;
#X connect 17 0 23 0;
#X connect 18 0 11 1;
#X connect 18 0 17 0;
#X connect 19 0 4 0;
#X connect 21 0 11 0;
#X connect 23 0 25 0;
#X connect 23 1 26 0;
#X connect 25 0 24 0;
#X connect 25 0 22 0;
#X connect 26 0 24 0;
#X connect 26 0 22 0;
#X connect 27 0 6 0;
#X connect 27 0 20 0;
#X connect 27 1 12 0;
#X connect 27 2 28 0;
#X connect 29 0 15 0;
#X connect 29 0 61 0;
#X connect 29 0 62 0;
#X connect 29 1 10 0;
#X connect 29 1 13 0;
#X connect 29 2 1 0;
#X connect 29 2 14 0;
#X connect 29 3 30 0;
#X connect 30 0 31 1;
#X connect 31 0 35 0;
#X connect 32 1 31 0;
#X connect 33 0 34 0;
#X connect 34 0 36 0;
#X connect 35 0 33 0;
#X connect 37 0 38 0;
#X connect 38 0 39 0;
#X connect 41 0 42 0;
#X connect 42 0 43 0;
#X connect 43 0 46 0;
#X connect 46 0 44 0;
#X connect 46 0 45 0;
#X connect 47 0 46 0;
#X connect 60 0 55 0;
#X connect 60 1 56 0;
#X connect 60 2 57 0;
#X connect 60 3 58 0;
#X connect 60 4 59 0;
#X connect 61 0 32 0;
#X connect 61 2 31 2;
#X connect 62 0 3 0;
#X connect 63 0 64 0;
#X connect 64 0 17 0;
