#N canvas 169 455 833 377 10;
#X obj 583 35 v \$1-z;
#X obj 540 36 init 1;
#X obj 511 40 bng 15 250 50 0 empty empty empty 17 7 0 10 -262144 -1
-1;
#X obj 583 54 v \$1-s;
#X text 625 35 z=zoom=pixel/unit;
#X text 625 54 s=scroll=time of xleft;
#X obj 540 55 init 0;
#X obj 584 81 v \$1-xl;
#X obj 584 101 v \$1-xr;
#X text 640 81 xl=pixel_x of xleft in canvas;
#X text 641 100 xr=pixel_x of xright in canvas;
#X obj 533 79 init 90;
#X obj 528 103 init 690;
#X obj 19 342 v \$1-songlen;
#X obj 19 320 init 3600;
#X obj 19 300 bng 15 250 50 0 empty empty empty 17 7 0 10 -262144 -1
-1;
#X obj 149 45 r \$1-i-snd;
#X obj 56 111 v \$1-songlen;
#X obj 29 91 t f b;
#X obj 29 112 /;
#X obj 176 110 v \$1-songlen;
#X obj 149 88 t f b;
#X obj 149 109 *;
#X obj 213 244 spigot;
#X obj 246 221 r \$1-lockstoi-snd;
#X obj 213 265 s \$1-s-rcv;
#X obj 669 192 s \$2-song-\$3-snd;
#X obj 29 42 r \$2-song-\$3-rcv;
#X obj 176 203 speedlim 150;
#X obj 149 67 t f f;
#X obj 176 242 t f f;
#X obj 203 304 v \$1-songlen;
#X obj 176 284 t f b;
#X obj 176 305 *;
#X msg 149 152 get \$1;
#X obj 149 173 s \$1-tr-rcv;
#X obj 176 346 s \$1-tr-rcv;
#X msg 176 325 i \$1;
#X obj 375 132 r \$1-reset;
#X obj 375 222 s \$1-tr-rcv;
#X msg 375 201 reset;
#X obj 499 191 s \$1-tr-rcv;
#X obj 499 150 r \$1-delete;
#X msg 499 170 delete;
#X obj 594 149 r \$1-tr-snd;
#X obj 497 232 r \$1-tr-snd;
#X obj 497 260 nroute unsel 2;
#X obj 497 302 s \$1-tr-rcv;
#X msg 497 280 unsel;
#X msg 664 313 move \$1;
#X obj 618 291 unwonk f s f;
#N canvas 94 310 345 553 z/s 0;
#X obj 58 525 s \$1-updategui;
#X floatatom 37 58 5 0 0 0 - - -, f 5;
#X obj 55 125 f;
#X obj 75 210 *;
#X obj 162 232 v \$1-xl;
#X obj 114 232 v \$1-xr;
#X obj 114 253 -;
#X obj 75 169 t f b b;
#X obj 114 274 /;
#X obj 114 297 / 2;
#X obj 75 319 -;
#X obj 75 346 clip 0 3000;
#X obj 114 210 t b b b;
#X obj 138 322 -;
#X obj 75 387 change;
#X obj 75 365 max 0;
#X obj 57 504 del 5;
#X obj 55 451 speedlim 50;
#X obj 131 61 r \$1-z-snd;
#X obj 37 34 r \$1-s-snd;
#X obj 131 83 t b f;
#X msg 195 402 z \$1;
#X msg 158 402 s \$1;
#X obj 183 449 s \$1-tr-rcv;
#X obj 94 189 v \$1-songlen;
#X obj 75 409 t f f;
#X obj 55 148 t f f;
#X obj 57 485 b;
#X connect 1 0 2 0;
#X connect 2 0 26 0;
#X connect 3 0 10 0;
#X connect 4 0 6 1;
#X connect 5 0 6 0;
#X connect 6 0 8 0;
#X connect 7 0 3 0;
#X connect 7 1 24 0;
#X connect 7 2 12 0;
#X connect 8 0 9 0;
#X connect 8 0 13 1;
#X connect 9 0 10 1;
#X connect 10 0 11 0;
#X connect 11 0 15 0;
#X connect 12 0 5 0;
#X connect 12 1 4 0;
#X connect 13 0 11 2;
#X connect 14 0 25 0;
#X connect 15 0 14 0;
#X connect 16 0 0 0;
#X connect 18 0 20 0;
#X connect 19 0 1 0;
#X connect 20 0 2 0;
#X connect 20 1 8 1;
#X connect 20 1 21 0;
#X connect 21 0 23 0;
#X connect 22 0 23 0;
#X connect 24 0 3 1;
#X connect 24 0 13 0;
#X connect 25 0 17 0;
#X connect 25 1 22 0;
#X connect 26 0 17 0;
#X connect 26 1 7 0;
#X connect 27 0 16 0;
#X restore 293 43 pd z/s;
#X obj 295 87 hsl 200 15 0.25 1000 1 0 \$1-z-snd \$1-z-rcv zoom -28
7 0 10 -262144 -1 -1 11224 1;
#X obj 296 68 hsl 200 15 0 1 0 0 \$1-s-snd \$1-s-rcv scroll -38 7 0
10 -262144 -1 -1 0 1;
#X obj 70 89 s \$1-tr-rcv;
#X obj 17 248 apsubmaster \$1 \$2 \$3;
#X obj 30 132 s \$1-i-snd;
#X msg 13 183 set \$1;
#X obj 13 206 s \$1-i-rcv;
#X obj 13 160 speedlim 150;
#X obj 196 153 s \$2-song-\$3-snd;
#X msg 196 132 i \$1;
#X obj 149 129 t f f;
#X obj 29 64 route i mes;
#X obj 81 204 s \$1-mes;
#N canvas 656 193 450 300 doubleclic 0;
#X obj 86 48 inlet;
#X obj 100 74 del 200;
#X obj 86 124 f;
#X obj 114 124 + 1;
#X msg 101 99 0;
#X obj 85 193 outlet;
#X obj 86 151 sel 1;
#X obj 166 120 t b b;
#X msg 258 168 color 13 13 22;
#X obj 167 144 del 300;
#X obj 168 197 outlet;
#X msg 169 168 color 14 14 22;
#X connect 0 0 1 0;
#X connect 0 0 2 0;
#X connect 1 0 4 0;
#X connect 2 0 3 0;
#X connect 2 0 6 0;
#X connect 3 0 2 1;
#X connect 4 0 2 1;
#X connect 6 0 5 0;
#X connect 6 0 7 0;
#X connect 7 0 9 0;
#X connect 7 1 8 0;
#X connect 8 0 10 0;
#X connect 9 0 11 0;
#X connect 11 0 10 0;
#X restore 375 156 pd doubleclic;
#X obj 393 178 s \$1-reset-rcv;
#X floatatom 104 161 5 0 0 0 - - -, f 5;
#N canvas 72 569 450 300 Mouse 0;
#X obj 174 47 cursor;
#X obj 174 25 init 1;
#X obj 174 3 bng 15 250 50 0 empty empty empty 17 7 0 10 -262144 -1
-1;
#X obj 102 92 route motion;
#X obj 102 115 route x y;
#X obj 102 140 t f f;
#X obj 102 161 -;
#X obj 174 67 t a a;
#X obj 140 139 t f f;
#X obj 140 160 -;
#X msg 102 209 motion dx \$1;
#X msg 140 182 motion dy \$1;
#X obj 201 251 s \$1-Mouse;
#X connect 0 0 7 0;
#X connect 1 0 0 0;
#X connect 2 0 1 0;
#X connect 3 0 4 0;
#X connect 4 0 5 0;
#X connect 4 1 8 0;
#X connect 5 0 6 1;
#X connect 5 1 6 0;
#X connect 6 0 10 0;
#X connect 7 0 3 0;
#X connect 7 1 12 0;
#X connect 8 0 9 1;
#X connect 8 1 9 0;
#X connect 9 0 11 0;
#X connect 10 0 12 0;
#X connect 11 0 12 0;
#X restore 18 272 pd Mouse;
#X obj 358 299 apf \$1 z \$1-z 2;
#X obj 358 320 apf \$1 s \$1-s 2;
#X obj 594 171 nroute move 2;
#X obj 594 259 nroute move 2;
#X obj 597 337 print;
#X obj 550 336 bng 15 250 50 0 empty empty empty 17 7 0 10 -262144
-1 -1;
#X connect 1 0 0 0;
#X connect 2 0 1 0;
#X connect 2 0 6 0;
#X connect 2 0 11 0;
#X connect 2 0 12 0;
#X connect 6 0 3 0;
#X connect 11 0 7 0;
#X connect 12 0 8 0;
#X connect 14 0 13 0;
#X connect 15 0 14 0;
#X connect 16 0 29 0;
#X connect 17 0 19 1;
#X connect 18 0 19 0;
#X connect 18 1 17 0;
#X connect 19 0 56 0;
#X connect 19 0 59 0;
#X connect 20 0 22 1;
#X connect 21 0 22 0;
#X connect 21 1 20 0;
#X connect 22 0 62 0;
#X connect 23 0 25 0;
#X connect 24 0 23 1;
#X connect 27 0 63 0;
#X connect 28 0 30 0;
#X connect 29 0 21 0;
#X connect 29 1 28 0;
#X connect 30 0 32 0;
#X connect 30 1 23 0;
#X connect 31 0 33 1;
#X connect 32 0 33 0;
#X connect 32 1 31 0;
#X connect 33 0 37 0;
#X connect 34 0 35 0;
#X connect 37 0 36 0;
#X connect 38 0 65 0;
#X connect 40 0 39 0;
#X connect 42 0 43 0;
#X connect 43 0 41 0;
#X connect 44 0 71 0;
#X connect 45 0 46 0;
#X connect 45 0 72 0;
#X connect 46 0 48 0;
#X connect 48 0 47 0;
#X connect 50 2 49 0;
#X connect 57 0 58 0;
#X connect 59 0 57 0;
#X connect 61 0 60 0;
#X connect 62 0 34 0;
#X connect 62 1 61 0;
#X connect 63 0 18 0;
#X connect 63 1 64 0;
#X connect 63 2 54 0;
#X connect 65 0 40 0;
#X connect 65 1 66 0;
#X connect 71 1 26 0;
#X connect 72 0 47 0;
