#N canvas 123 134 1009 740 10;
#X obj 556 409 namecanvas \$0-can;
#X obj 556 388 s \$0-can;
#X msg 556 367 donecanvasdialog 1 -1 0;
#X msg 556 345 reduire;
#X obj 556 432 v \$0-z;
#X obj 513 433 init 1;
#X obj 483 431 bng 15 250 50 0 empty empty empty 17 7 0 10 -262144
-1 -1;
#X obj 556 451 v \$0-s;
#X text 598 432 z=zoom=pixel/unit;
#X text 598 451 s=scroll=time of xleft;
#X obj 513 452 init 0;
#X obj 557 478 v \$0-xl;
#X obj 557 498 v \$0-xr;
#X text 613 478 xl=pixel_x of xleft in canvas;
#X text 614 497 xr=pixel_x of xright in canvas;
#X obj 360 461 s \$0-updategui;
#X floatatom 379 372 5 0 0 0 - - -;
#X floatatom 338 371 5 0.1 1e+06 0 - - -;
#X obj 338 393 t b f;
#X obj 379 395 t b f;
#X obj 365 416 v \$0-z;
#X obj 409 415 v \$0-s;
#X obj 506 476 init 90;
#X obj 501 500 init 690;
#X obj 456 373 v \$0-songlen;
#X obj 456 351 init 3600;
#X obj 456 331 bng 15 250 50 0 empty empty empty 17 7 0 10 -262144
-1 -1;
#X obj 456 303 bng 15 250 50 0 \$0-reset \$0-reset-rcv reset 17 7 0
10 -260818 -260818 -1;
#X obj 173 320 r \$0-i-snd;
#X obj 80 395 v \$0-songlen;
#X obj 53 375 t f b;
#X obj 53 396 /;
#X obj 200 394 v \$0-songlen;
#X obj 173 372 t f b;
#X obj 173 393 *;
#X obj 260 349 s \$0-get;
#X obj 745 640 r \$0-got;
#X obj 745 683 list trim;
#X obj 237 528 spigot;
#X obj 270 505 r \$0-lockstoi-snd;
#X obj 237 549 s \$0-s-rcv;
#X obj 53 538 apmaster \$0;
#X obj 55 587 r \$0-apmaster-snd;
#X obj 55 608 route loaded;
#X obj 55 629 s \$0-tablestoevents;
#N canvas 75 433 450 300 saveload 0;
#X obj 218 29 r \$0-load;
#X obj 218 80 symbol tl_\$2.txt;
#X msg 218 138 loadfile \$1;
#X obj 218 162 s \$0-apmaster-rcv;
#X obj 94 77 symbol tl_\$2.txt;
#X obj 94 159 s \$0-apmaster-rcv;
#X obj 94 53 r \$0-save;
#X msg 94 135 savefile \$1;
#X obj 94 102 absolutepath \$1;
#X obj 218 110 absolutepath \$1;
#X obj 218 52 t b b;
#X obj 263 55 s \$0-reset;
#X connect 0 0 10 0;
#X connect 1 0 9 0;
#X connect 2 0 3 0;
#X connect 4 0 8 0;
#X connect 6 0 4 0;
#X connect 7 0 5 0;
#X connect 8 0 7 0;
#X connect 9 0 2 0;
#X connect 10 0 1 0;
#X connect 10 1 11 0;
#X restore 53 565 pd saveload;
#X obj 787 312 bng 15 250 50 0 \$0-load empty load 17 7 0 10 -4034
-1 -1;
#X obj 735 312 bng 15 250 50 0 \$0-save empty save 17 7 0 10 -258113
-1 -1;
#X obj 21 284 tlBars \$0;
#X obj 540 646 s \$1-song-\$2-snd;
#X obj 745 662 list prepend got;
#X obj 53 326 r \$1-song-\$2-rcv;
#X obj 200 487 speedlim 150;
#X obj 173 351 t f f;
#X obj 257 370 s \$0-index;
#X obj 200 526 t f f;
#X obj 227 588 v \$0-songlen;
#X obj 200 568 t f b;
#X obj 200 589 *;
#X obj 809 639 r \$0-added;
#X obj 808 683 list prepend added;
#X msg 173 436 get \$1;
#X obj 173 457 s \$0-tr-rcv;
#X obj 200 630 s \$0-tr-rcv;
#X msg 200 609 i \$1;
#X obj 776 354 r \$0-reset;
#X obj 776 444 s \$0-tr-rcv;
#X msg 776 423 reset;
#X obj 424 614 s \$0-tr-rcv;
#X obj 424 573 r \$0-delete;
#X msg 424 593 delete;
#X obj 542 581 r \$0-tr-snd;
#X obj 20 42 tlTrack \$0 1;
#X obj 282 633 r \$0-tr-snd;
#X obj 282 661 nroute unsel 2;
#X obj 282 703 s \$0-tr-rcv;
#X msg 282 681 unsel;
#X obj 375 654 nroute move 2;
#X msg 421 698 move \$1;
#X obj 375 676 unwonk f s f;
#X obj 610 303 bng 15 250 50 0 \$0-delete empty delete 17 7 0 10 -257985
-1 -1;
#N canvas 184 180 345 553 z/s 0;
#X obj 60 510 s \$0-updategui;
#X floatatom 37 58 5 0 0 0 - - -;
#X obj 75 409 t b f;
#X obj 75 127 f;
#X obj 75 210 *;
#X obj 162 232 v \$0-xl;
#X obj 114 232 v \$0-xr;
#X obj 114 253 -;
#X obj 75 169 t f b b;
#X obj 114 274 /;
#X obj 114 297 / 2;
#X obj 75 319 -;
#X obj 75 346 clip 0 3000;
#X obj 114 210 t b b b;
#X obj 138 322 -;
#X obj 75 387 change;
#X obj 75 365 max 0;
#X obj 55 485 del 5;
#X obj 55 148 t b f;
#X obj 55 451 speedlim 50;
#X obj 131 61 r \$0-z-snd;
#X obj 37 34 r \$0-s-snd;
#X obj 131 83 t b f;
#X msg 195 402 z \$1;
#X msg 158 402 s \$1;
#X obj 183 449 s \$0-tr-rcv;
#X obj 94 189 v \$0-songlen;
#X connect 1 0 3 0;
#X connect 2 0 19 0;
#X connect 2 1 24 0;
#X connect 3 0 18 0;
#X connect 4 0 11 0;
#X connect 5 0 7 1;
#X connect 6 0 7 0;
#X connect 7 0 9 0;
#X connect 8 0 4 0;
#X connect 8 1 26 0;
#X connect 8 2 13 0;
#X connect 9 0 10 0;
#X connect 9 0 14 1;
#X connect 10 0 11 1;
#X connect 11 0 12 0;
#X connect 12 0 16 0;
#X connect 13 0 6 0;
#X connect 13 1 5 0;
#X connect 14 0 12 2;
#X connect 15 0 2 0;
#X connect 16 0 15 0;
#X connect 17 0 0 0;
#X connect 18 0 19 0;
#X connect 18 1 8 0;
#X connect 20 0 22 0;
#X connect 21 0 1 0;
#X connect 22 0 3 0;
#X connect 22 1 9 1;
#X connect 22 1 23 0;
#X connect 23 0 25 0;
#X connect 24 0 25 0;
#X connect 26 0 4 1;
#X connect 26 0 14 0;
#X restore 337 326 pd z/s;
#X obj 644 578 r \$0-tr-rcv;
#X obj 644 600 route get;
#X msg 644 620 i \$1;
#X obj 383 544 hsl 590 15 0.25 1000 1 0 \$0-z-snd \$0-z-rcv zoom -28
7 0 10 -262144 -1 -1 0 1;
#X obj 389 524 hsl 590 15 0 1 0 0 \$0-s-snd \$0-s-rcv scroll -38 7
0 10 -262144 -1 -1 92 1;
#X obj 94 373 s \$0-tr-rcv;
#X obj 54 516 apsubmaster \$0 \$1 \$2;
#X obj 141 607 bng 15 250 50 0 empty empty empty 17 7 0 10 -262144
-1 -1;
#X obj 543 604 nroute move 2;
#X obj 54 416 s \$0-i-snd;
#X msg 37 467 set \$1;
#X obj 37 490 s \$0-i-rcv;
#X obj 36 443 speedlim 150;
#X obj 220 437 s \$1-song-\$2-snd;
#X msg 220 416 i \$1;
#X obj 173 413 t f f;
#X obj 20 108 tlTrack \$0 4;
#X obj 20 64 tlTrack \$0 2;
#X obj 20 86 tlTrack \$0 3;
#X obj 20 130 tlTrack \$0 5;
#X obj 20 152 tlTrack \$0 6;
#X obj 20 174 tlTrack \$0 7;
#X obj 20 196 tlTrack \$0 8;
#X obj 20 218 tlTrack \$0 9;
#X obj 20 240 tlTrack \$0 10;
#X obj 20 262 tlTrack \$0 11;
#X obj 20 21 tlClock \$0;
#X obj 53 348 route i mes;
#X obj 105 488 s \$0-mes;
#N canvas 658 188 450 300 doubleclic 0;
#X obj 86 48 inlet;
#X obj 100 74 del 200;
#X obj 86 124 f;
#X obj 114 124 + 1;
#X msg 101 99 0;
#X obj 85 193 outlet;
#X obj 86 151 sel 1;
#X obj 166 120 t b b;
#X msg 258 168 color 13 13 22;
#X obj 167 144 del 300;
#X obj 168 197 outlet;
#X msg 169 168 color 14 14 22;
#X connect 0 0 1 0;
#X connect 0 0 2 0;
#X connect 1 0 4 0;
#X connect 2 0 3 0;
#X connect 2 0 6 0;
#X connect 3 0 2 1;
#X connect 4 0 2 1;
#X connect 6 0 5 0;
#X connect 6 0 7 0;
#X connect 7 0 9 0;
#X connect 7 1 8 0;
#X connect 8 0 10 0;
#X connect 9 0 11 0;
#X connect 11 0 10 0;
#X restore 776 378 pd doubleclic;
#X obj 794 400 s \$0-reset-rcv;
#X floatatom 128 445 5 0 0 0 - - -;
#X connect 2 0 1 0;
#X connect 3 0 2 0;
#X connect 5 0 4 0;
#X connect 6 0 5 0;
#X connect 6 0 10 0;
#X connect 6 0 22 0;
#X connect 6 0 23 0;
#X connect 10 0 7 0;
#X connect 16 0 19 0;
#X connect 17 0 18 0;
#X connect 18 0 15 0;
#X connect 18 1 20 0;
#X connect 19 0 15 0;
#X connect 19 1 21 0;
#X connect 22 0 11 0;
#X connect 23 0 12 0;
#X connect 25 0 24 0;
#X connect 26 0 25 0;
#X connect 28 0 53 0;
#X connect 29 0 31 1;
#X connect 30 0 31 0;
#X connect 30 1 29 0;
#X connect 31 0 91 0;
#X connect 31 0 94 0;
#X connect 32 0 34 1;
#X connect 33 0 34 0;
#X connect 33 1 32 0;
#X connect 34 0 97 0;
#X connect 36 0 50 0;
#X connect 38 0 40 0;
#X connect 39 0 38 1;
#X connect 42 0 43 0;
#X connect 43 0 44 0;
#X connect 50 0 37 0;
#X connect 51 0 109 0;
#X connect 52 0 55 0;
#X connect 53 0 33 0;
#X connect 53 1 52 0;
#X connect 55 0 57 0;
#X connect 55 1 38 0;
#X connect 56 0 58 1;
#X connect 57 0 58 0;
#X connect 57 1 56 0;
#X connect 58 0 64 0;
#X connect 59 0 60 0;
#X connect 60 0 37 0;
#X connect 61 0 62 0;
#X connect 64 0 63 0;
#X connect 65 0 111 0;
#X connect 67 0 66 0;
#X connect 69 0 70 0;
#X connect 70 0 68 0;
#X connect 71 0 90 0;
#X connect 73 0 74 0;
#X connect 73 0 77 0;
#X connect 74 0 76 0;
#X connect 76 0 75 0;
#X connect 77 0 79 0;
#X connect 78 0 75 0;
#X connect 79 2 78 0;
#X connect 82 0 83 0;
#X connect 83 0 84 0;
#X connect 89 0 44 0;
#X connect 90 1 49 0;
#X connect 92 0 93 0;
#X connect 94 0 92 0;
#X connect 96 0 95 0;
#X connect 97 0 61 0;
#X connect 97 1 96 0;
#X connect 109 0 30 0;
#X connect 109 1 110 0;
#X connect 109 2 87 0;
#X connect 111 0 67 0;
#X connect 111 1 112 0;
#X coords 0 -1 1 1 701 300 1 20 20;
