#N canvas 93 132 752 269 10;
#X obj 127 192 s \$0-bgcan-rcv;
#X obj 127 216 r \$0-bgcan-snd;
#X msg 127 173 get_pos;
#X obj 127 133 loadbang;
#X obj 127 153 b;
#X obj 127 239 s \$0-canpos;
#X obj 58 227 s \$0-canw;
#X obj 104 134 bng 15 250 50 0 empty empty empty 17 7 0 10 -262144
-1 -1;
#X obj 232 123 r \$0-canpos;
#X obj 232 144 unpack f f;
#X floatatom 278 166 5 0 0 0 - - -, f 5;
#X floatatom 224 171 5 0 0 0 - - -, f 5;
#X obj 91 21 cnv 15 600 18 \$0-bgcan-snd \$0-bgcan-rcv empty 20 12
0 14 -66577 -262081 0;
#X obj 58 207 600;
#X msg 35 155 pos 91 21;
#N canvas 12 315 775 546 division 0;
#X obj 128 -124 r \$1-z-snd;
#X obj 67 -122 r \$0-canw;
#X obj 77 -69 /;
#X obj 77 -92 t b f;
#X floatatom 27 -15 5 0 0 0 - - -, f 5;
#X obj 77 -23 / 10;
#X obj 36 -145 bng 15 250 50 0 empty empty empty 17 7 0 10 -262144
-1 -1;
#X obj 77 62 drip;
#X obj 77 92 spigot;
#X obj 77 7 t b f b;
#X msg 122 91 1;
#X obj 77 114 moses;
#X obj 104 136 t f b;
#X msg 121 114 0;
#X floatatom 104 181 5 0 0 0 - - -, f 5;
#X obj 104 201 s \$0-div;
#X obj 104 160 change;
#X obj 641 -52 r \$0-div;
#X obj 597 -31 f;
#X obj 641 -30 t b f;
#X obj 597 49 * 100;
#X obj 597 75 div;
#X obj 570 -146 r \$1-tr-rcv;
#X obj 570 -123 route s;
#X obj 681 31 * 100;
#X obj 615 109 + 1;
#X floatatom 615 154 5 0 0 0 - - -, f 5;
#X obj 636 74 div;
#X obj 615 133 *;
#X obj 597 23 demux;
#X obj 624 0 >= 1;
#X obj 615 177 s \$0-first;
#X obj 570 -51 t f f;
#X obj 452 16 for++ 0 10;
#X obj 452 83 *;
#X obj 492 58 r \$0-div;
#X obj 453 105 +;
#X obj 493 83 r \$0-first;
#X obj 453 189 *;
#X obj 495 157 r \$1-z-snd;
#X obj 453 165 -;
#X obj 452 -7 t b f;
#X obj 452 36 t f f;
#X obj 480 189 makesymbol \$0-n%s-rcv;
#X obj 454 258 moses 595;
#X obj 453 212 t f b;
#X obj 480 232 v \$1-xl;
#X obj 533 229 v \$1-xr;
#X obj 454 233 +;
#X obj 533 250 - 5;
#X obj 498 -141 r \$1-z-snd;
#X obj 498 -117 b;
#X obj 453 131 t f f;
#X obj 454 309 pack f s s;
#N canvas 753 214 526 515 label 0;
#X obj 129 39 inlet;
#X obj 129 77 t f f;
#X obj 220 160 mod 60;
#X obj 220 135 t f f;
#X obj 300 157 div 60;
#X obj 300 202 mod 60;
#X obj 300 177 t f f;
#X obj 351 202 div 60;
#X obj 220 115 i;
#X obj 224 360 pack s s s s;
#X obj 351 223 sel 0;
#X msg 351 248 symbol;
#X msg 378 273 symbol \$1h;
#X obj 300 228 sel 0;
#X msg 300 253 symbol;
#X msg 327 298 symbol \$1m;
#X obj 220 249 sel 0;
#X msg 220 274 symbol;
#X msg 247 299 symbol \$1s;
#X obj 129 191 sel 0;
#X msg 129 216 symbol;
#X msg 224 383 list \$4 \$3 \$2 \$1;
#X obj 224 407 l2s;
#X obj 274 430 symbol;
#X obj 327 407 bng 15 250 50 0 empty empty empty 17 7 0 10 -262144
-1 -1;
#X obj 224 444 outlet;
#X obj 274 404 loadbang;
#X obj 129 122 * 10;
#X obj 94 386 makefilename %.2d;
#X obj 129 146 + 0.5;
#X obj 261 248 f;
#X obj 182 193 t f b;
#X obj 129 169 i;
#X obj 182 215 makesymbol;
#X obj 129 100 fmod 1;
#X connect 0 0 1 0;
#X connect 1 0 34 0;
#X connect 1 1 8 0;
#X connect 2 0 16 0;
#X connect 2 0 30 1;
#X connect 3 0 2 0;
#X connect 3 1 4 0;
#X connect 4 0 6 0;
#X connect 5 0 13 0;
#X connect 6 0 5 0;
#X connect 6 1 7 0;
#X connect 7 0 10 0;
#X connect 8 0 3 0;
#X connect 9 0 21 0;
#X connect 10 0 11 0;
#X connect 10 1 12 0;
#X connect 11 0 9 3;
#X connect 12 0 9 3;
#X connect 13 0 14 0;
#X connect 13 1 15 0;
#X connect 14 0 9 2;
#X connect 15 0 9 2;
#X connect 16 0 17 0;
#X connect 16 1 18 0;
#X connect 17 0 9 1;
#X connect 18 0 9 1;
#X connect 19 0 20 0;
#X connect 19 1 31 0;
#X connect 20 0 9 0;
#X connect 21 0 22 0;
#X connect 22 0 25 0;
#X connect 23 0 22 1;
#X connect 24 0 23 0;
#X connect 26 0 23 0;
#X connect 27 0 29 0;
#X connect 29 0 32 0;
#X connect 30 0 18 0;
#X connect 31 0 33 0;
#X connect 31 1 30 0;
#X connect 32 0 19 0;
#X connect 33 0 9 0;
#X connect 34 0 27 0;
#X restore 542 280 pd label;
#X msg 505 280 40;
#X obj 529 338 spigot;
#X msg 564 310 0;
#X msg 429 355 \; \$2 pos \$1 20;
#X msg 529 364 \; \$2 label \$3;
#X obj 623 214 r \$0-first;
#X obj 623 234 change;
#X obj 632 259 r \$0-div;
#X obj 632 279 change;
#X msg 623 308 1;
#X obj 358 -87 bng 15 250 50 0 empty empty empty 17 7 0 10 -262144
-1 -1;
#X obj 535 -88 f;
#X obj 570 -78 speedlim 100;
#X floatatom 386 289 5 0 0 0 - - -, f 5;
#X msg 77 28 0.1 0.2 0.5 0.1 0.2 0.5 1 2 5 10 20 30 60 120 150 240
300 600 1200 3600;
#X connect 0 0 3 0;
#X connect 1 0 2 0;
#X connect 2 0 5 0;
#X connect 3 0 2 0;
#X connect 3 1 2 1;
#X connect 5 0 4 0;
#X connect 5 0 9 0;
#X connect 6 0 2 0;
#X connect 7 0 8 0;
#X connect 8 0 11 0;
#X connect 9 0 69 0;
#X connect 9 1 11 1;
#X connect 9 2 10 0;
#X connect 10 0 8 1;
#X connect 11 1 12 0;
#X connect 12 0 16 0;
#X connect 12 1 13 0;
#X connect 13 0 8 1;
#X connect 14 0 15 0;
#X connect 16 0 14 0;
#X connect 17 0 19 0;
#X connect 18 0 29 0;
#X connect 19 0 18 0;
#X connect 19 1 24 0;
#X connect 19 1 27 1;
#X connect 19 1 28 1;
#X connect 19 1 30 0;
#X connect 20 0 21 0;
#X connect 21 0 25 0;
#X connect 22 0 23 0;
#X connect 23 0 66 0;
#X connect 24 0 21 1;
#X connect 25 0 28 0;
#X connect 26 0 31 0;
#X connect 27 0 25 0;
#X connect 28 0 26 0;
#X connect 29 0 20 0;
#X connect 29 1 27 0;
#X connect 30 0 29 1;
#X connect 32 0 41 0;
#X connect 32 1 18 0;
#X connect 33 0 42 0;
#X connect 33 1 57 0;
#X connect 34 0 36 0;
#X connect 35 0 34 1;
#X connect 36 0 52 0;
#X connect 37 0 36 1;
#X connect 38 0 45 0;
#X connect 39 0 38 1;
#X connect 40 0 38 0;
#X connect 41 0 33 0;
#X connect 41 1 40 1;
#X connect 42 0 34 0;
#X connect 42 1 43 0;
#X connect 43 0 53 1;
#X connect 44 0 53 0;
#X connect 44 1 55 0;
#X connect 45 0 48 0;
#X connect 45 1 46 0;
#X connect 45 1 47 0;
#X connect 46 0 48 1;
#X connect 47 0 49 0;
#X connect 48 0 44 0;
#X connect 49 0 44 1;
#X connect 50 0 51 0;
#X connect 51 0 66 0;
#X connect 52 0 40 0;
#X connect 52 1 54 0;
#X connect 53 0 58 0;
#X connect 53 0 56 0;
#X connect 54 0 53 2;
#X connect 55 0 53 0;
#X connect 56 0 59 0;
#X connect 57 0 56 1;
#X connect 60 0 61 0;
#X connect 61 0 64 0;
#X connect 62 0 63 0;
#X connect 63 0 64 0;
#X connect 64 0 56 1;
#X connect 65 0 66 0;
#X connect 66 0 67 0;
#X connect 67 0 32 0;
#X connect 69 0 7 0;
#X restore 47 58 pd division;
#N canvas 35 258 438 442 MakeEvents 0;
#X obj 49 32 bng 15 250 50 0 empty empty empty 17 7 0 10 -262144 -1
-1;
#X obj 48 194 bng 15 250 50 0 empty empty empty 17 7 0 10 -262144 -1
-1;
#X obj 108 259 makesymbol $;
#X obj 108 278 makesymbol %s0;
#X obj 108 237 loadbang;
#X obj 166 238 bng 15 250 50 0 empty empty empty 17 7 0 10 -262144
-1 -1;
#X obj 48 241 f;
#X obj 48 280 pack f s;
#X obj 48 386 s \$0-can;
#X obj 49 11 inlet;
#X obj 50 78 makesymbol \$0-n%s-rcv;
#X obj 48 218 for++ 0 10 1;
#X obj 50 56 for++ 0 10;
#X obj 279 154 cnv 15 100 60 empty empty empty 20 12 0 14 -233017 -66577
0;
#X obj 282 76 hsl 128 15 0 127 0 0 empty empty empty -2 -8 0 10 -262144
-1 -1 0 1;
#X msg 51 125 \; \$1 pos 150 20;
#X msg 48 316 obj 150 20 cnv 2 2 10 empty \$2-n\$1-rcv 1h -10 15 0
10 -1 -66577 0;
#X msg 159 111 \; \$1 color 0 0;
#X connect 0 0 12 0;
#X connect 1 0 11 0;
#X connect 2 0 3 0;
#X connect 3 0 7 1;
#X connect 4 0 2 0;
#X connect 5 0 2 0;
#X connect 6 0 7 0;
#X connect 7 0 16 0;
#X connect 9 0 0 0;
#X connect 10 0 15 0;
#X connect 10 0 17 0;
#X connect 11 0 6 0;
#X connect 12 0 10 0;
#X connect 16 0 8 0;
#X restore 46 102 pd MakeEvents;
#X obj 492 88 namecanvas \$0-can;
#X obj 45 80 bng 15 250 50 0 empty empty empty 17 7 0 10 -262144 -1
-1;
#X obj 224 20 cnv 2 2 10 empty \$0-n0-rcv 0s1 -10 15 0 10 -262144 -262144
0;
#X obj 358 20 cnv 2 2 10 empty \$0-n1-rcv symbol -10 15 0 10 -262144
-262144 0;
#X obj 493 20 cnv 2 2 10 empty \$0-n2-rcv symbol -10 15 0 10 -262144
-262144 0;
#X obj 627 20 cnv 2 2 10 empty \$0-n3-rcv symbol -10 15 0 10 -262144
-262144 0;
#X obj 40 20 cnv 2 2 10 empty \$0-n4-rcv symbol -10 15 0 10 -262144
-262144 0;
#X obj 40 20 cnv 2 2 10 empty \$0-n5-rcv symbol -10 15 0 10 -262144
-262144 0;
#X obj 40 20 cnv 2 2 10 empty \$0-n6-rcv symbol -10 15 0 10 -262144
-262144 0;
#X obj 40 20 cnv 2 2 10 empty \$0-n7-rcv symbol -10 15 0 10 -262144
-262144 0;
#X obj 40 20 cnv 2 2 10 empty \$0-n8-rcv symbol -10 15 0 10 -262144
-262144 0;
#X obj 40 20 cnv 2 2 10 empty \$0-n9-rcv symbol -10 15 0 10 -262144
-262144 0;
#X obj 40 20 cnv 2 2 10 empty \$0-n10-rcv symbol -10 15 0 10 -262144
-262144 0;
#X obj 690 21 cnv 10 20 18 empty \$0-numcan-rcv empty 5 10 0 12 -262144
-262144 0;
#X obj 21 21 cnv 15 70 18 empty \$0-namecan-rcv empty 12 10 0 12 -262144
-1 0;
#X obj 494 158 s \$0-can;
#X msg 494 137 donecanvasdialog 1 -1 0;
#X msg 494 115 reduire;
#X connect 1 0 5 0;
#X connect 2 0 0 0;
#X connect 3 0 4 0;
#X connect 4 0 2 0;
#X connect 4 0 13 0;
#X connect 7 0 4 0;
#X connect 8 0 9 0;
#X connect 9 0 11 0;
#X connect 9 1 10 0;
#X connect 13 0 6 0;
#X connect 14 0 0 0;
#X connect 18 0 16 0;
#X connect 33 0 32 0;
#X connect 34 0 33 0;
#X coords 0 -1 1 1 700 20 1 20 20;
