#N canvas 35 359 416 300 10;
#X obj 292 170 symbol;
#X obj 241 94 route _all_;
#X obj 241 114 route store;
#X obj 241 137 t b f;
#X obj 241 157 del 10;
#X obj 241 177 f;
#X msg 241 218 \$3 ev \$1 name \$2;
#X obj 241 74 r \$1-pattern-snd;
#X obj 47 195 change;
#X obj 32 241 route -1;
#X obj 77 263 s \$1-tlev;
#X obj 32 77 apsubmaster \$1 \$2 \$3;
#X obj 32 98 apsubmaster \$1var \$2 \$3var;
#X obj 47 217 s \$1-outside;
#X obj 47 174 == -1;
#X symbolatom 324 195 10 0 0 0 - - -;
#X text 22 5 tlTrackRef newSubRef Ref Name SongName TrackNum;
#X text 15 20 \$1=newSubRef \$2=Ref \$3=Name \$4=SongName \$5=TrackNum
;
#X obj 32 131 tlLinkAp \$2 \$4 \$5 \$1;
#X obj 292 149 r \$1-eventname;
#X obj 241 244 s \$2-song-\$4-rcv;
#X obj 241 197 pack f s \$5;
#X text 67 51 Create new subrefs linked to the track of a song.;
#X text 30 279 event : eventNum relativeTime normalizedTime eventLength
;
#X obj 130 214 bng 15 250 50 0 \$1-rec-snd \$1-rec-rcv rec 17 7 0 10
-195568 -195568 -195568;
#X obj 47 152 list split 1;
#X connect 0 0 15 0;
#X connect 0 0 21 1;
#X connect 1 0 2 0;
#X connect 2 0 3 0;
#X connect 3 0 4 0;
#X connect 3 1 5 1;
#X connect 4 0 5 0;
#X connect 5 0 21 0;
#X connect 6 0 20 0;
#X connect 7 0 1 0;
#X connect 8 0 13 0;
#X connect 9 1 10 0;
#X connect 14 0 8 0;
#X connect 18 0 9 0;
#X connect 18 0 25 0;
#X connect 19 0 0 0;
#X connect 21 0 6 0;
#X connect 25 0 14 0;
#X coords 0 -1 1 1 85 30 1 130 200;
