#N canvas 179 138 520 597 10;
#X obj 101 34 cnv 15 198 45 empty \$0-can-rcv 0mn_05sec_65 100 25 1
13 -262130 -45076 0;
#X obj 106 47 tgl 30 0 \$1-\$2-play-snd \$1-\$2-play-rcv play 0 -7
0 10 -4034 -1 -1 0 1;
#X obj 182 163 sel 0 1;
#X obj 170 239 f;
#X obj 170 266 t f f;
#X obj 197 287 swap 3600;
#X obj 197 309 -;
#X obj 288 180 route i;
#X obj 185 216 demux;
#X obj 197 331 * 1000;
#X obj 170 357 pack f f;
#X msg 170 379 \$1 \, 3600 \$2;
#X obj 170 403 line;
#X msg 170 428 i \$1;
#X floatatom 216 409 5 0 0 0 - - -;
#X msg 136 266 stop;
#X obj 147 47 bng 30 250 50 0 \$1-\$2-home-snd \$1-\$2-home-rcv home
0 -7 0 10 -257985 -1 -1;
#X msg 114 142 0;
#X obj 288 204 t f f f;
#X obj 372 227 wrap;
#X obj 372 251 * 100;
#X obj 372 274 i;
#X obj 330 245 mod 60;
#X obj 288 247 div 60;
#X obj 288 155 r \$1-song-\$2-snd;
#X obj 170 449 s \$1-song-\$2-rcv;
#X obj 372 297 makefilename %.2d;
#X obj 330 321 makefilename %.2d;
#X obj 288 354 makefilename %d;
#X obj 288 379 pack s s s;
#X obj 288 404 makesymbol %smn_%ssec_%s;
#X msg 288 517 label \$1;
#X obj 288 543 s \$0-can-rcv;
#X obj 182 140 r \$1-\$2-play-snd;
#X obj 80 199 s \$1-\$2-play-rcv;
#X obj 333 64 r \$1-\$2-home-snd;
#X obj 80 95 r \$1-\$2-Goto;
#X obj 159 111 r \$1-\$2-play-snd;
#X obj 144 140 f;
#X obj 80 174 f;
#X obj 80 117 t b f b b;
#X obj 111 265 f;
#X obj 333 111 s \$1-\$2-Goto;
#X msg 333 87 0;
#X obj 288 427 t f s;
#X obj 288 491 symbol;
#X obj 288 469 b;
#X obj 288 449 maxlib/speedlim 50;
#X connect 2 0 15 0;
#X connect 2 1 3 0;
#X connect 3 0 4 0;
#X connect 4 0 10 0;
#X connect 4 1 5 0;
#X connect 5 0 6 0;
#X connect 5 1 6 1;
#X connect 6 0 9 0;
#X connect 7 0 8 0;
#X connect 7 0 18 0;
#X connect 8 0 3 1;
#X connect 9 0 10 1;
#X connect 10 0 11 0;
#X connect 11 0 12 0;
#X connect 12 0 13 0;
#X connect 13 0 25 0;
#X connect 14 0 13 0;
#X connect 15 0 12 0;
#X connect 17 0 34 0;
#X connect 18 0 23 0;
#X connect 18 1 22 0;
#X connect 18 2 19 0;
#X connect 19 0 20 0;
#X connect 20 0 21 0;
#X connect 21 0 26 0;
#X connect 22 0 27 0;
#X connect 23 0 28 0;
#X connect 24 0 7 0;
#X connect 26 0 29 2;
#X connect 27 0 29 1;
#X connect 28 0 29 0;
#X connect 29 0 30 0;
#X connect 30 0 44 0;
#X connect 31 0 32 0;
#X connect 33 0 2 0;
#X connect 33 0 8 1;
#X connect 35 0 43 0;
#X connect 36 0 40 0;
#X connect 37 0 38 1;
#X connect 38 0 39 1;
#X connect 39 0 34 0;
#X connect 40 0 39 0;
#X connect 40 1 41 0;
#X connect 40 2 17 0;
#X connect 40 3 38 0;
#X connect 41 0 13 0;
#X connect 43 0 42 0;
#X connect 44 0 47 0;
#X connect 44 1 45 1;
#X connect 45 0 31 0;
#X connect 46 0 45 0;
#X connect 47 0 46 0;
#X coords 0 -1 1 1 200 60 1 100 20;
